<svg width="18" height="18" viewBox="0 0 18 18" fill="none" xmlns="http://www.w3.org/2000/svg">
<g clip-path="url(#clip0_492_17222)">
<path d="M1.85045 1.125C1.24331 1.125 0.751089 1.63941 0.751089 2.27427C0.751089 2.90897 1.24331 3.42354 1.85045 3.42354L13.0919 3.42354L0.703156 16.3748C0.265612 16.8323 0.265612 17.5741 0.703156 18.0316C1.14085 18.4891 1.85045 18.4891 2.28814 18.0316L14.6763 5.08078L14.6763 16.8317C14.6763 17.4664 15.1685 17.9809 15.7756 17.9809C16.3828 17.9809 16.875 17.4664 16.875 16.8317L16.875 2.27427C16.875 1.63941 16.3828 1.125 15.7756 1.125L1.85045 1.125Z" fill="#212121"/>
</g>
<defs>
<clipPath id="clip0_492_17222">
<rect width="18" height="18" fill="white" transform="translate(18 18) rotate(-180)"/>
</clipPath>
</defs>
</svg>
